<svg width="240" height="80" xmlns="http://www.w3.org/2000/svg" class="el-tooltip" preserveAspectRatio="xMidYMid meet">

 <g>
  <title>background</title>
  <rect fill="none" id="canvas_background" height="82" width="242" y="-1" x="-1"/>
 </g>
 <g>
  <title>Layer 1</title>
  <g id="svg_5" class="icon-text-wrapper icon-svg-group iconsvg" fill="#6fc2d0">
   <g id="svg_6" class="iconsvg-imagesvg">
    <rect id="svg_7" class="image-rect" height="57.847637" width="60" y="10.076181" x="6.354996" stroke-width="2" fill-opacity="0" fill="#6fc2d0"/>
    <svg id="svg_8" class="image-svg-svg" height="57.847637" width="60" y="10.076181" x="6.354996">
     <svg viewBox="1.1899986267089844 1.1155636310577393 103.60111999511719 99.8846664428711" y="0px" x="0px" id="svg_3" xmlns:xlink="http://www.w3.org/1999/xlink">
      <g id="svg_9">
       <path id="svg_10" d="m9.52,33.97c14.82,-17.91 38.92,-23 55.19,-11.11c4.21,3.08 7.5,7.02 9.85,11.5c4.21,-9.48 6.36,-19.51 6.55,-29.54c-23.28,-8.88 -50.51,-1.57 -65.92,19.51c-2.25,3.08 -4.13,6.31 -5.67,9.64z" fill="#373a6d"/>
       <path id="svg_11" d="m58.43,25.63c-8.69,-6.35 -21.71,-3.34 -29.29,6.67c-0.07,0.17 -0.14,0.33 -0.21,0.49c3.25,1.78 6.62,3.23 10.09,4.32c5.84,-7.05 15.27,-9.62 23.66,-6.98c-1.12,-1.71 -2.53,-3.24 -4.25,-4.5z" fill="#373a6d"/>
       <path id="svg_12" d="m94.43,20.37c8.11,21.78 0.46,45.2 -17.97,53.35c-4.78,2.1 -9.83,2.98 -14.89,2.77c6.1,8.39 13.72,15.27 22.31,20.45c19.33,-15.72 26.62,-42.96 16.07,-66.85c-1.55,-3.49 -3.41,-6.72 -5.52,-9.72z" fill="#ff8246"/>
       <path id="svg_13" d="m77.19,66.89c9.85,-4.35 13.75,-17.13 8.86,-28.7c-0.11,-0.15 -0.21,-0.29 -0.32,-0.43c-3.17,1.92 -6.11,4.12 -8.79,6.58c3.19,8.59 0.7,18.03 -5.78,23.97c2.05,-0.1 4.09,-0.56 6.03,-1.42z" fill="#ff8246"/>
       <path id="svg_14" d="m62.23,100.76c-22.92,-3.87 -39.39,-22.21 -37.22,-42.24c0.56,-5.19 2.33,-10.01 5.04,-14.29c-10.31,1.09 -20.08,4.25 -28.86,9.09c3.95,24.61 23.9,44.53 49.86,47.34c3.79,0.43 7.52,0.44 11.18,0.1z" fill="#6fc2d0"/>
       <path id="svg_15" d="m30.55,62.57c-1.15,10.7 7.96,20.47 20.43,22.03c0.19,-0.03 0.36,-0.04 0.53,-0.06c-0.08,-3.7 -0.51,-7.35 -1.3,-10.9c-9.03,-1.53 -15.97,-8.42 -17.87,-17c-0.94,1.83 -1.56,3.82 -1.79,5.93z" fill="#6fc2d0"/>
      </g>
     </svg>
    </svg>
    <!---->
   </g>
   <g id="svg_16">
    <g id="svg_17" class="tp-name iconsvg-namesvg">
     <g id="svg_18">
      <path id="svg_19" d="m89.639996,23.214001c0.18,3.32 1.76,4.41 3.65,4.41c1.53,0 2.52,-0.77 2.97,-2.39c-0.59,-4.05 -4.19,-7.15 -9.27,-7.15c-7.52,0 -13.64,4.72 -13.64,13.09c0,8.37 5.72,13.01 12.56,13.01c4.91,0 8.19,-2.07 10.26,-5.81l-0.9,-0.59c-1.62,2.03 -3.56,3.2 -6.17,3.2c-4.81,0 -8.1,-3.82 -8.1,-10.53c0,-6.88 2.93,-10.8 6.94,-10.8c0.4,0 0.8,0.05 1.25,0.09l0.45,3.47zm19.08,18.53c-0.09,-2.92 -0.13,-6.12 -0.13,-9.04l0,-18.81l0.18,-7.25l-0.63,-0.4l-10.08,1.94l0,1.17l3.28,0.31l0,23.04c0,2.88 -0.04,6.12 -0.09,9.04l-3.1,0.27l0,1.4l13.63,0l0,-1.4l-3.06,-0.27zm18.72,2.44c7.65,0 12.78,-5.14 12.78,-13.19c0,-8.05 -5.67,-12.91 -12.78,-12.91c-7.06,0 -12.73,4.95 -12.73,12.91c0,7.92 5.04,13.19 12.73,13.19zm0,-1.58c-3.24,0 -5.03,-3.69 -5.03,-11.52c0,-7.87 1.79,-11.43 5.03,-11.43c3.25,0 5,3.56 5,11.43c0,7.83 -1.75,11.52 -5,11.52zm41.36,-0.72l0,-15.75l0.18,-7.33l-0.59,-0.45l-9.76,1.57l0,0.99l3.01,0.59l-0.17,16.65c-1.31,1.3 -2.93,2.16 -4.64,2.16c-2.16,0 -3.56,-1.13 -3.56,-4.73l0,-9.45l0.28,-7.33l-0.59,-0.45l-9.99,1.35l0,1.21l3.15,0.63l-0.18,13.37c-0.09,6.83 2.75,9.27 7.25,9.27c3.28,0 6.25,-2.03 8.32,-4.64l0.22,4.5l9.9,-0.59l0,-1.34l-2.83,-0.23zm22.99,-2.07c-1.07,0.85 -2.25,1.17 -3.51,1.17c-3.46,0 -6.07,-2.61 -6.07,-9.95c0,-7.55 2.84,-9.85 6.26,-9.85c1.12,0 2.25,0.32 3.32,1.17l0,17.46zm7.25,2.03l0,-27.99l0.18,-7.21l-0.63,-0.4l-10.22,1.94l0,1.17l3.69,0.36l0,11.43c-1.75,-2.07 -3.82,-3.06 -6.43,-3.06c-6.17,0 -11.16,4.77 -11.16,13.22c0,8.15 4.63,12.88 10.53,12.88c2.74,0 5.08,-1.13 6.97,-3.02l0.36,2.79l9.64,-0.54l0,-1.4l-2.93,-0.17zm30.6,-23l-9.27,0l0,1.35l4.1,0.45l-5.54,16.92l-6.12,-17.01l3.28,-0.36l0,-1.35l-13.72,0l0,1.35l2.61,0.27l10.67,25.38c-1.31,3.24 -2.57,5.36 -4.28,6.79l-0.72,-0.94c-1.12,-1.44 -2.43,-2.48 -4.23,-2.48c-1.76,0 -3.51,0.86 -3.87,2.89c0.09,2.02 2.48,3.51 4.99,3.51c2.75,0 6.71,-2.12 9.37,-9.14l9.71,-25.87l3.02,-0.41l0,-1.35z"/>
     </g>
     <!---->
     <!---->
     <!---->
     <!---->
     <!---->
     <!---->
     <g id="svg_20" fill="#ff8246"/>
    </g>
    <g id="svg_21" fill="#373a6d" class="tp-slogan iconsvg-slogansvg">
     <!---->
     <rect id="svg_22" width="60.899997" y="66.684002" height="1" x="73.354996"/>
     <rect id="svg_23" x="168.744992" width="60.899997" y="66.684002" height="1"/>
     <g id="svg_24">
      <path id="svg_25" d="m144.204993,71.016002l-2.49,-4.18l2.21,-3.44l1.18,-0.16l0,-0.42l-2.99,0l0,0.42l1.2,0.16l-1.85,3.02l-1.82,-3.05l1.25,-0.13l0,-0.42l-3.53,0l0,0.42l1.15,0.13l2.34,3.93l-2.36,3.68l-1.24,0.16l0,0.43l2.98,0l0,-0.43l-1.14,-0.16l2.01,-3.26l1.96,3.3l-1.24,0.12l0,0.43l3.51,0l0,-0.43l-1.13,-0.12zm7.79,-1.84l-0.39,1.85l-3.17,0c-0.03,-1.14 -0.03,-2.29 -0.03,-3.26l0,-0.84c0,-1.23 0,-2.4 0.03,-3.56l1.25,-0.13l0,-0.42l-3.56,0l0,0.42l1.25,0.13c0.03,1.14 0.03,2.31 0.03,3.5l0,0.67c0,1.15 0,2.31 -0.03,3.47l-1.25,0.13l0,0.43l6.39,0l0.11,-2.39l-0.63,0zm6.84,-5.77l1.15,-0.17l0,-0.42l-2.98,0l0,0.42l1.26,0.16l-1.98,4.16l-1.98,-4.17l1.31,-0.15l0,-0.42l-3.48,0l0,0.42l1.02,0.12l2.36,4.77c0,1.17 0,2.02 -0.02,2.88l-1.38,0.13l0,0.43l3.83,0l0,-0.43l-1.38,-0.13c-0.03,-0.87 -0.03,-1.72 -0.03,-2.9l2.3,-4.7zm3.99,3.07c-0.96,-0.37 -1.52,-0.89 -1.52,-1.76c0,-1.03 0.8,-1.56 1.89,-1.56c0.45,0 0.8,0.08 1.16,0.3l0.28,1.52l0.64,0l0.06,-1.68c-0.58,-0.42 -1.22,-0.68 -2.11,-0.68c-1.59,0 -2.83,0.85 -2.83,2.35c0,1.26 0.85,2.02 2.19,2.56l0.49,0.19c1.25,0.5 1.76,0.93 1.76,1.8c0,1.11 -0.88,1.7 -2.19,1.7c-0.61,0 -1.02,-0.11 -1.47,-0.37l-0.29,-1.58l-0.61,0l-0.06,1.8c0.57,0.37 1.51,0.69 2.49,0.69c1.75,0 3.04,-0.92 3.04,-2.45c0,-1.21 -0.63,-1.93 -2.4,-2.64l-0.52,-0.19z"/>
     </g>
    </g>
   </g>
  </g>
 </g>
</svg>